<svg width="18" height="16" viewBox="0 0 18 16" fill="none" xmlns="http://www.w3.org/2000/svg">
<path d="M13.8214 8.99977H13.1785C13.0846 8.99977 13.0076 9.02985 12.9476 9.09029C12.8872 9.15038 12.8571 9.2274 12.8571 9.32119V12.5354C12.8571 12.9774 12.6999 13.3557 12.3851 13.6705C12.0704 13.9852 11.692 14.1424 11.25 14.1424H2.89279C2.45084 14.1424 2.07246 13.9852 1.75769 13.6705C1.44298 13.3557 1.28565 12.9775 1.28565 12.5354V4.1783C1.28565 3.73635 1.44295 3.35811 1.75769 3.04337C2.07246 2.7286 2.45084 2.5713 2.89279 2.5713H9.96414C10.058 2.5713 10.1351 2.54108 10.1953 2.48088C10.2555 2.42062 10.2856 2.34367 10.2856 2.24984V1.6069C10.2856 1.51324 10.2555 1.43616 10.1953 1.376C10.1351 1.31573 10.058 1.28565 9.96414 1.28565H2.89279C2.096 1.28565 1.41459 1.56858 0.848657 2.13441C0.282933 2.70021 0 3.38161 0 4.17841V12.5356C0 13.3323 0.282933 14.0139 0.848692 14.5795C1.41463 15.1453 2.09603 15.4284 2.89283 15.4284H11.25C12.0468 15.4284 12.7283 15.1453 13.2941 14.5795C13.86 14.0139 14.143 13.3324 14.143 12.5356V9.32144C14.143 9.22754 14.1129 9.15049 14.0524 9.09029C13.9922 9.02985 13.9151 8.99977 13.8214 8.99977Z" fill="#3C4858"/>
<path d="M17.809 0.190827C17.6817 0.0635736 17.5308 0 17.3569 0H12.214C12.04 0 11.8892 0.0635736 11.7621 0.190827C11.6348 0.318009 11.5711 0.468693 11.5711 0.642808C11.5711 0.816923 11.6348 0.967642 11.7621 1.0949L13.5299 2.86271L6.98085 9.41186C6.91379 9.47881 6.88037 9.55586 6.88037 9.64276C6.88037 9.72997 6.9139 9.80698 6.98085 9.87393L8.12595 11.0189C8.1929 11.0858 8.26995 11.1192 8.35699 11.1192C8.44403 11.1192 8.52111 11.0859 8.58803 11.0189L15.1371 4.46986L16.905 6.23768C17.0321 6.36493 17.1829 6.42857 17.357 6.42857C17.5311 6.42857 17.6818 6.36493 17.8091 6.23768C17.9363 6.11046 17.9999 5.95981 17.9999 5.7857V0.642808C17.9999 0.468587 17.9361 0.318009 17.809 0.190827Z" fill="#3C4858"/>
</svg>
